# xmcd
#
# Track frame offsets: 
#        150
#        15949
#        30870
#        44544
#        58236
#        71620
#        83681
#        95527
#        107763
#        127669
#        137045
#        147594
#        158115
#        173939
#        186106
#        213208
#        225816
#        240786
#        262118
#        275783
#        288565
#        305847
#        320278
#        329479
#
# Disc length: 4583 seconds
#
# Revision: 1
# Processed by: cddbd v1.5.2PL0 Copyright (c) Steve Scherf et al.
# Submitted via: ExactAudioCopy v0.99pb5
#
DISCID=5111e518
DTITLE=Claude Nougaro - Les 100 plus belles chansons - CD2 - Toulouse 
DYEAR=2006
DGENRE=Jazz
TTITLE0=L'amour sorcier
TTITLE1=Bidonville (Berimbau)
TTITLE2=A bout de souffle (Blue Rondo à la Turk)
TTITLE3=Côte d'Azur
TTITLE4=Schplaouch !
TTITLE5=Gratte-moi la tête
TTITLE6=La clé
TTITLE7=Une bouteille à la mer
TTITLE8=Toulouse
TTITLE9=A tes seins (Saint-Thomas)
TTITLE10=Je crois (Imploracion Negra)
TTITLE11=Les craquantes
TTITLE12=Berceuse à Pépé
TTITLE13=Petit taureau
TTITLE14=Paris mai (Flomela)
TTITLE15=Quatre boules de cuir
TTITLE16=La pluie fait des claquettes
TTITLE17=La neige
TTITLE18=C'est Eddy
TTITLE19=Soeur âme (Sister Salvation)
TTITLE20=Armé d'amour
TTITLE21=Mater
TTITLE22=Sa maison
TTITLE23=L'amour sorcier - inédit
EXTD=YEAR: 2006
EXTT0=
EXTT1=
EXTT2=
EXTT3=
EXTT4=
EXTT5=
EXTT6=
EXTT7=
EXTT8=
EXTT9=
EXTT10=
EXTT11=
EXTT12=
EXTT13=
EXTT14=
EXTT15=
EXTT16=
EXTT17=
EXTT18=
EXTT19=
EXTT20=
EXTT21=
EXTT22=
EXTT23=
PLAYORDER=
